HIERARCHY
ROOT hip
{
  OFFSET 0 0 0
  CHANNELS 6 Xposition Yposition Zposition Zrotation Yrotation Xrotation
  JOINT abdomen
  {
    OFFSET 0 20.6881 -0.73152
    CHANNELS 3 Zrotation Xrotation Yrotation
    JOINT chest
    {
      OFFSET 0 11.7043 -0.48768
      CHANNELS 3 Zrotation Xrotation Yrotation
      JOINT neck
      {
        OFFSET 0 22.1894 -2.19456
        CHANNELS 3 Zrotation Xrotation Yrotation
        JOINT head
        {
          OFFSET -0.24384 7.07133 1.2192
          CHANNELS 3 Zrotation Xrotation Yrotation
          JOINT leftEye
          {
            OFFSET 4.14528 8.04674 8.04672
            CHANNELS 3 Zrotation Xrotation Yrotation
            End Site
            {
              OFFSET 1 0 0
            }
          }
          JOINT rightEye
          {
            OFFSET -3.6576 8.04674 8.04672
            CHANNELS 3 Zrotation Xrotation Yrotation
            End Site
            {
              OFFSET 1 0 0
            }
          }
        }
      }
      JOINT rCollar
      {
        OFFSET -2.68224 19.2634 -4.8768
        CHANNELS 3 Zrotation Xrotation Yrotation
        JOINT rShldr
        {
          OFFSET -8.77824 -1.95073 1.46304
          CHANNELS 3 Zrotation Xrotation Yrotation
          JOINT rForeArm
          {
            OFFSET -28.1742 -1.7115 0.48768
            CHANNELS 3 Zrotation Xrotation Yrotation
            JOINT rHand
            {
              OFFSET -22.5879 0.773209 7.07136
              CHANNELS 3 Zrotation Xrotation Yrotation
              JOINT rThumb1
              {
                OFFSET -1.2192 -0.487915 3.41376
                CHANNELS 3 Zrotation Xrotation Yrotation
                JOINT rThumb2
                {
                  OFFSET -3.37035 -0.52449 3.41376
                  CHANNELS 3 Zrotation Xrotation Yrotation
                  End Site
                  {
                    OFFSET -1.78271 -1.18214 1.43049
                  }
                }
              }
              JOINT rIndex1
              {
                OFFSET -7.75947 0.938293 5.60832
                CHANNELS 3 Zrotation Xrotation Yrotation
                JOINT rIndex2
                {
                  OFFSET -2.54057 -0.884171 1.56538
                  CHANNELS 3 Zrotation Xrotation Yrotation
                  End Site
                  {
                    OFFSET -1.62519 -0.234802 1.16502
                  }
                }
              }
              JOINT rMid1
              {
                OFFSET -8.24714 1.18213 3.41376
                CHANNELS 3 Zrotation Xrotation Yrotation
                JOINT rMid2
                {
                  OFFSET -3.10165 -0.590103 1.0647
                  CHANNELS 3 Zrotation Xrotation Yrotation
                  End Site
                  {
                    OFFSET -2.48547 -0.328903 0.83742
                  }
                }
              }
              JOINT rRing1
              {
                OFFSET -8.82822 0.546677 1.51678
                CHANNELS 3 Zrotation Xrotation Yrotation
                JOINT rRing2
                {
                  OFFSET -2.60934 -0.819778 -0.0198488
                  CHANNELS 3 Zrotation Xrotation Yrotation
                  End Site
                  {
                    OFFSET -2.33842 -0.294052 0.168128
                  }
                }
              }
              JOINT rPinky1
              {
                OFFSET -8.27202 -0.0477905 -0.4584
                CHANNELS 3 Zrotation Xrotation Yrotation
                JOINT rPinky2
                {
                  OFFSET -1.82734 -0.647385 -0.700984
                  CHANNELS 3 Zrotation Xrotation Yrotation
                  End Site
                  {
                    OFFSET -1.69225 -0.51767 -0.607171
                  }
                }
              }
            }
          }
        }
      }
      JOINT lCollar
      {
        OFFSET 2.68224 19.2634 -4.8768
        CHANNELS 3 Zrotation Xrotation Yrotation
        JOINT lShldr
        {
          OFFSET 8.77824 -1.95073 1.46304
          CHANNELS 3 Zrotation Xrotation Yrotation
          JOINT lForeArm
          {
            OFFSET 28.1742 -1.7115 0.48768
            CHANNELS 3 Zrotation Xrotation Yrotation
            JOINT lHand
            {
              OFFSET 22.5879 0.773209 7.07136
              CHANNELS 3 Zrotation Xrotation Yrotation
              JOINT lThumb1
              {
                OFFSET 1.2192 -0.487915 3.41376
                CHANNELS 3 Zrotation Xrotation Yrotation
                JOINT lThumb2
                {
                  OFFSET 3.37035 -0.52449 3.41376
                  CHANNELS 3 Zrotation Xrotation Yrotation
                  End Site
                  {
                    OFFSET 1.78271 -1.18214 1.43049
                  }
                }
              }
              JOINT lIndex1
              {
                OFFSET 7.75947 0.938293 5.60832
                CHANNELS 3 Zrotation Xrotation Yrotation
                JOINT lIndex2
                {
                  OFFSET 2.54057 -0.884171 1.56538
                  CHANNELS 3 Zrotation Xrotation Yrotation
                  End Site
                  {
                    OFFSET 1.62519 -0.234802 1.16502
                  }
                }
              }
              JOINT lMid1
              {
                OFFSET 8.24714 1.18213 3.41376
                CHANNELS 3 Zrotation Xrotation Yrotation
                JOINT lMid2
                {
                  OFFSET 3.10165 -0.590103 1.0647
                  CHANNELS 3 Zrotation Xrotation Yrotation
                  End Site
                  {
                    OFFSET 2.48547 -0.328903 0.83742
                  }
                }
              }
              JOINT lRing1
              {
                OFFSET 8.82822 0.546677 1.51678
                CHANNELS 3 Zrotation Xrotation Yrotation
                JOINT lRing2
                {
                  OFFSET 2.60934 -0.819778 -0.0198488
                  CHANNELS 3 Zrotation Xrotation Yrotation
                  End Site
                  {
                    OFFSET 2.33842 -0.294052 0.168128
                  }
                }
              }
              JOINT lPinky1
              {
                OFFSET 8.27202 -0.0477905 -0.4584
                CHANNELS 3 Zrotation Xrotation Yrotation
                JOINT lPinky2
                {
                  OFFSET 1.82734 -0.647385 -0.700984
                  CHANNELS 3 Zrotation Xrotation Yrotation
                  End Site
                  {
                    OFFSET 1.69225 -0.51767 -0.607171
                  }
                }
              }
            }
          }
        }
      }
    }
  }
  JOINT rButtock
  {
    OFFSET -8.77824 4.35084 1.2192
    CHANNELS 3 Zrotation Xrotation Yrotation
    JOINT rThigh
    {
      OFFSET 0 -1.70687 -2.19456
      CHANNELS 3 Zrotation Xrotation Yrotation
      JOINT rShin
      {
        OFFSET 0 -36.8199 0.73152
        CHANNELS 3 Zrotation Xrotation Yrotation
        JOINT rFoot
        {
          OFFSET 0.73152 -45.1104 -5.12064
          CHANNELS 3 Zrotation Xrotation Yrotation
          End Site
          {
            OFFSET -1.1221 -3.69964 12.103
          }
        }
      }
    }
  }
  JOINT lButtock
  {
    OFFSET 8.77824 4.35084 1.2192
    CHANNELS 3 Zrotation Xrotation Yrotation
    JOINT lThigh
    {
      OFFSET 0 -1.70687 -2.19456
      CHANNELS 3 Zrotation Xrotation Yrotation
      JOINT lShin
      {
        OFFSET 0 -36.8199 0.73152
        CHANNELS 3 Zrotation Xrotation Yrotation
        JOINT lFoot
        {
          OFFSET -0.73152 -45.1104 -5.12064
          CHANNELS 3 Zrotation Xrotation Yrotation
          End Site
          {
            OFFSET 1.1221 -3.69964 12.103
          }
        }
      }
    }
  }
}
MOTION
Frames:	7
Frame Time:	0.00833333
0.208502 54.8154 -158.432 0.0 0.0 0.0 -1.74427 -0.00324502 -0.047627 -0.481539 0.00120965 -0.0833907 3.24755e-14 -7.95139e-16 -9.93924e-17 9.6892e-14 3.18055e-15 -3.23025e-16 -0.0 0.0 0.0 -0.0 0.0 0.0 1.58522e-14 -1.94126e-17 4.96962e-17 3.41596e-13 -6.33626e-16 7.95139e-16 5.84e-12 -1.76779e-12 -6.67917e-14 6.69625e-11 1.67459e-12 -1.74931e-13 1.5793e-10 -2.0036e-13 -5.31153e-13 2.7273e-10 -3.49861e-13 -9.39059e-13 1.57935e-10 -2.00773e-13 -5.43875e-13 7.73091 5.47488 0.417314 1.5793e-10 -2.0117e-13 -5.37514e-13 2.90554 0.965183 0.102902 1.57937e-10 -2.00574e-13 -5.41489e-13 10.2786 0.731801 0.0259123 1.57925e-10 -1.98387e-13 -5.37514e-13 2.22167 -0.733487 -0.20892 1.58551e-14 -2.32951e-17 -1.49089e-16 3.35267e-13 -7.3923e-16 -1.59028e-15 5.85878e-12 1.72804e-12 -8.5875e-14 6.69063e-11 -1.83399e-12 -1.59028e-13 1.57857e-10 -2.26501e-13 -5.66139e-13 2.72618e-10 -3.94389e-13 -9.58937e-13 1.57851e-10 -2.24627e-13 -5.56597e-13 -7.73091 5.47488 -0.417314 1.57857e-10 -2.26515e-13 -5.56597e-13 -2.90554 0.965183 -0.102902 1.57845e-10 -2.25919e-13 -5.54212e-13 -10.2786 0.731801 -0.0259123 1.57862e-10 -2.24627e-13 -5.50236e-13 -2.22167 -0.733487 0.20892 -2.03217e-16 0.0 -3.88251e-19 -0.87136 -1.92409 -0.00259349 -0.00879284 -2.07862 -0.0723447 -0.451586 3.99793 0.131368 2.03217e-16 0.0 3.88251e-19 -1.78923 -6.94298 0.172932 -0.00356114 7.01263 -0.0919325 0.488275 -0.0743539 -0.0539112
-3.83539 51.6963 -162.589 -14.4117 -25.4908 11.5147 1.8071 1.01684 0.558738 0.517703 -1.59589 0.109175 -1.66152 2.74548 -1.25762 2.34936 -3.53482 -2.0867 -0.0 0.0 0.0 -0.0 0.0 0.0 1.55038e-13 1.45555e-13 2.28385e-13 18.5573 17.1553 -8.59191 -26.0781 -23.7837 14.0795 0.348449 -13.1603 -1.67824 -9.04709e-10 2.16588e-09 -3.4979e-10 -1.54654e-09 3.63291e-09 -6.39279e-10 -9.04703e-10 2.16588e-09 -3.49803e-10 7.73091 5.47488 0.417314 -9.04709e-10 2.16588e-09 -3.49795e-10 2.90554 0.965183 0.102902 -9.04703e-10 2.16588e-09 -3.49796e-10 10.2786 0.731801 0.0259123 -9.04713e-10 2.16588e-09 -3.49792e-10 2.22167 -0.733487 -0.20892 1.55027e-13 1.45553e-13 2.28175e-13 -15.3716 9.80461 -8.9475 5.66582 -2.94743 -8.40685 -0.115806 7.56096 -1.02951 -5.1371e-10 -2.99786e-09 -1.84216e-09 -9.25409e-10 -5.0448e-09 -3.16671e-09 -5.13721e-10 -2.99784e-09 -1.84215e-09 -7.73091 5.47488 -0.417314 -5.13709e-10 -2.99785e-09 -1.84216e-09 -2.90554 0.965183 -0.102902 -5.13719e-10 -2.99786e-09 -1.84216e-09 -10.2786 0.731801 -0.0259123 -5.13704e-10 -2.99786e-09 -1.84215e-09 -2.22167 -0.733487 0.20892 -2.03217e-16 0.0 -3.88251e-19 -3.18899 2.6557 0.136836 0.288906 6.55504 0.525247 -0.372511 -3.0619 -9.32369 2.03217e-16 0.0 3.88251e-19 6.17404 -26.6599 11.4302 0.315641 27.5543 -0.370368 0.381386 -1.32875 -1.19617
-3.82812 51.6931 -162.592 -14.3842 -25.4692 11.5232 5.53959 2.09439 1.20127 1.58481 -3.28356 0.313362 -3.28717 5.64145 -2.59675 4.551 -7.2507 -4.31941 -0.0 0.0 0.0 -0.0 0.0 0.0 3.12326e-13 3.1012e-13 4.85398e-13 44.7008 33.9115 -20.4843 -37.3343 -43.5102 37.9047 -0.214511 -27.0334 -3.77458 -2.08028e-09 4.56982e-09 -7.35203e-10 -3.55918e-09 7.66555e-09 -1.34384e-09 -2.08027e-09 4.56981e-09 -7.35216e-10 7.73091 5.47488 0.417314 -2.08028e-09 4.56981e-09 -7.35206e-10 2.90554 0.965183 0.102902 -2.08027e-09 4.56981e-09 -7.35205e-10 10.2786 0.731801 0.0259123 -2.08028e-09 4.56981e-09 -7.352e-10 2.22167 -0.733487 -0.20892 3.123e-13 3.10119e-13 4.85177e-13 -28.1734 19.3589 -19.2638 10.7259 -5.85238 -17.3656 0.067362 15.5444 -2.179 -1.25666e-09 -6.34544e-09 -3.89426e-09 -2.25102e-09 -1.06787e-08 -6.69435e-09 -1.25668e-09 -6.34541e-09 -3.89424e-09 -7.73091 5.47488 -0.417314 -1.25666e-09 -6.34543e-09 -3.89425e-09 -2.90554 0.965183 -0.102902 -1.25667e-09 -6.34544e-09 -3.89425e-09 -10.2786 0.731801 -0.0259123 -1.25666e-09 -6.34544e-09 -3.89425e-09 -2.22167 -0.733487 0.20892 -2.03217e-16 0.0 -3.88251e-19 -5.6627 7.49703 0.286078 0.401394 15.6793 1.19435 -2.806 -10.0078 -19.6008 2.03217e-16 0.0 3.88251e-19 25.794 -44.4001 29.8081 0.984947 49.2683 -0.887422 0.214042 -2.65343 -2.40484
-3.82412 51.6905 -162.593 -14.3742 -25.4582 11.5346 8.84501 3.05569 1.77373 2.54848 -4.78992 0.49591 -4.62008 8.22049 -3.8077 6.2661 -10.5477 -6.356 -0.0 0.0 0.0 -0.0 0.0 0.0 4.3341e-13 4.36704e-13 6.85054e-13 76.098 45.7677 -36.672 -31.2413 -48.4795 70.2 -1.83733 -39.3246 -6.34266 -3.02999e-09 6.49805e-09 -1.04831e-09 -5.18509e-09 1.08994e-08 -1.91596e-09 -3.02998e-09 6.49804e-09 -1.04832e-09 7.73091 5.47488 0.417314 -3.02999e-09 6.49804e-09 -1.04831e-09 2.90554 0.965183 0.102902 -3.02998e-09 6.49805e-09 -1.04831e-09 10.2786 0.731801 0.0259123 -3.02999e-09 6.49804e-09 -1.0483e-09 2.22167 -0.733487 -0.20892 4.3337e-13 4.36705e-13 6.84822e-13 -36.4303 26.3941 -29.8152 14.4744 -8.08236 -25.4576 0.525203 22.6523 -3.31787 -1.85684e-09 -8.99312e-09 -5.52536e-09 -3.32146e-09 -1.51336e-08 -9.4982e-09 -1.85687e-09 -8.99309e-09 -5.52534e-09 -7.73091 5.47488 -0.417314 -1.85684e-09 -8.99311e-09 -5.52536e-09 -2.90554 0.965183 -0.102902 -1.85685e-09 -8.99313e-09 -5.52536e-09 -10.2786 0.731801 -0.0259123 -1.85684e-09 -8.99312e-09 -5.52536e-09 -2.22167 -0.733487 0.20892 -2.03217e-16 0.0 -3.88251e-19 -7.89228 11.815 0.42424 0.304059 23.8119 1.8692 -7.09845 -15.1982 -29.3119 2.03217e-16 0.0 3.88251e-19 57.1485 -52.9297 56.719 2.51364 68.6249 -2.20251 0.0173718 -3.83134 -3.48753
-3.82356 51.693 -162.59 -14.36 -25.493 11.505 11.1286 3.72762 2.16885 3.23073 -5.8432 0.62278 -5.47898 10.0224 -4.66509 7.31838 -12.8514 -7.81165 -0.0 0.0 0.0 -0.0 0.0 0.0 4.6398e-13 4.68336e-13 7.41318e-13 103.52 50.7552 -52.2423 -27.364 -42.9554 89.4026 -3.95823 -47.8024 -8.91726 -3.41506e-09 7.23704e-09 -1.18064e-09 -5.84419e-09 1.21364e-08 -2.157e-09 -3.41505e-09 7.23703e-09 -1.18065e-09 7.73091 5.47488 0.417314 -3.41506e-09 7.23703e-09 -1.18064e-09 2.90554 0.965183 0.102902 -3.41506e-09 7.23703e-09 -1.18064e-09 10.2786 0.731801 0.0259123 -3.41506e-09 7.23703e-09 -1.18063e-09 2.22167 -0.733487 -0.20892 4.63928e-13 4.68337e-13 7.41069e-13 -40.4449 30.0332 -38.0388 16.6961 -9.3504 -31.1564 1.03541 27.6004 -4.21356 -2.10009e-09 -9.89106e-09 -6.10398e-09 -3.75396e-09 -1.66411e-08 -1.04926e-08 -2.10011e-09 -9.89102e-09 -6.10396e-09 -7.73091 5.47488 -0.417314 -2.10009e-09 -9.89105e-09 -6.10398e-09 -2.90554 0.965183 -0.102902 -2.10009e-09 -9.89107e-09 -6.10398e-09 -10.2786 0.731801 -0.0259123 -2.10008e-09 -9.89106e-09 -6.10398e-09 -2.22167 -0.733487 0.20892 -2.03217e-16 0.0 -3.88251e-19 -9.46337 14.8248 0.526075 0.104425 29.4757 2.41272 -11.1878 -17.9784 -36.4388 2.03217e-16 0.0 3.88251e-19 83.2165 -52.1598 77.8801 7.46888 82.0758 -6.96748 -0.146623 -4.64817 -4.24881
-3.82055 51.6932 -162.588 -14.3428 -25.5024 11.4917 11.9995 3.99845 2.31409 3.51012 -6.2639 0.670713 -5.78922 10.7533 -5.00431 7.69544 -13.8198 -8.38956 -0.0 0.0 0.0 -0.0 0.0 0.0 3.53018e-13 3.36994e-13 5.79689e-13 115.268 51.7108 -59.0847 -27.3686 -39.4169 94.6469 -5.12267 -51.0875 -10.2163 -3.05178e-09 6.37482e-09 -1.08872e-09 -5.22117e-09 1.06804e-08 -1.9862e-09 -3.05178e-09 6.37481e-09 -1.08873e-09 7.73091 5.47488 0.417314 -3.05178e-09 6.37481e-09 -1.08872e-09 2.90554 0.965183 0.102902 -3.05178e-09 6.37481e-09 -1.08872e-09 10.2786 0.731801 0.0259123 -3.05178e-09 6.37481e-09 -1.08871e-09 2.22167 -0.733487 -0.20892 3.52953e-13 3.36995e-13 5.79413e-13 -41.6722 31.0985 -41.4168 17.482 -9.76646 -33.3882 1.28514 29.5457 -4.59655 -1.87047e-09 -8.2136e-09 -5.18533e-09 -3.33948e-09 -1.3804e-08 -8.91209e-09 -1.8705e-09 -8.21357e-09 -5.18531e-09 -7.73091 5.47488 -0.417314 -1.87047e-09 -8.21358e-09 -5.18533e-09 -2.90554 0.965183 -0.102902 -1.87047e-09 -8.2136e-09 -5.18533e-09 -10.2786 0.731801 -0.0259123 -1.87047e-09 -8.2136e-09 -5.18534e-09 -2.22167 -0.733487 0.20892 -2.03217e-16 0.0 -3.88251e-19 -10.0917 16.0027 0.570863 -0.00850684 31.6941 2.6478 -13.0078 -18.8351 -39.3017 2.03217e-16 0.0 3.88251e-19 92.7178 -50.3798 85.0431 22.0309 87.2123 -21.4452 -0.218273 -4.96453 -4.55801
-3.81819 51.6939 -162.585 -14.3267 -25.5156 11.476 11.8661 3.98289 2.28042 3.49931 -6.23271 0.66192 -5.73547 10.7222 -4.96648 7.65166 -13.845 -8.32128 -0.0 0.0 0.0 -0.0 0.0 0.0 1.41667e-13 9.06722e-14 2.63241e-13 113.973 51.6759 -58.3644 -27.3282 -39.8283 94.1116 -4.98158 -50.7234 -10.0614 -2.15196e-09 4.36583e-09 -8.3525e-10 -3.67897e-09 7.29598e-09 -1.51878e-09 -2.15195e-09 4.36583e-09 -8.35262e-10 7.73091 5.47488 0.417314 -2.15196e-09 4.36582e-09 -8.35252e-10 2.90554 0.965183 0.102902 -2.15195e-09 4.36583e-09 -8.35252e-10 10.2786 0.731801 0.0259123 -2.15196e-09 4.36583e-09 -8.35246e-10 2.22167 -0.733487 -0.20892 1.41589e-13 9.06719e-14 2.62927e-13 -41.5557 30.9703 -41.021 17.3874 -9.71333 -33.1186 1.2582 29.3534 -4.5575 -1.30182e-09 -4.70254e-09 -3.19834e-09 -2.31783e-09 -7.87397e-09 -5.49433e-09 -1.30184e-09 -4.70254e-09 -3.19832e-09 -7.73091 5.47488 -0.417314 -1.30182e-09 -4.70253e-09 -3.19834e-09 -2.90554 0.965183 -0.102902 -1.30182e-09 -4.70255e-09 -3.19834e-09 -10.2786 0.731801 -0.0259123 -1.30181e-09 -4.70255e-09 -3.19835e-09 -2.22167 -0.733487 0.20892 -2.03217e-16 0.0 -3.88251e-19 -10.0409 15.8722 0.57278 0.00492156 31.4542 2.62053 -12.8017 -18.7394 -38.9893 2.03217e-16 0.0 3.88251e-19 91.647 -50.595 84.2652 18.1461 86.647 -17.5692 -0.212906 -4.92456 -4.5429
